<?xml version="1.0" standalone="no"?>
<!DOCTYPE svg PUBLIC "-//W3C//DTD SVG 20010904//EN"
 "http://www.w3.org/TR/2001/REC-SVG-20010904/DTD/svg10.dtd">
<svg version="1.0" xmlns="http://www.w3.org/2000/svg"
 width="360.000000pt" height="360.000000pt" viewBox="0 0 360.000000 360.000000"
 preserveAspectRatio="xMidYMid meet">
<metadata>
Created by potrace 1.14, written by Peter Selinger 2001-2017
</metadata>
<g transform="translate(0.000000,360.000000) scale(0.100000,-0.100000)"
fill="#000000" stroke="none">
<path d="M1414 3221 c-3 -3 -10 -7 -15 -7 -5 -1 -13 -2 -17 -3 -5 0 -23 -16
-42 -33 -34 -34 -62 -87 -64 -123 -1 -11 -4 -24 -7 -30 -4 -5 -6 -22 -5 -37 1
-16 -2 -28 -7 -28 -4 0 -5 -4 -2 -10 3 -5 1 -10 -5 -10 -6 0 -9 -4 -5 -9 6
-11 -119 -141 -136 -141 -5 0 -8 -4 -4 -9 3 -5 -4 -12 -15 -16 -11 -4 -18 -10
-15 -15 3 -4 -1 -10 -8 -13 -15 -5 -93 -147 -81 -147 3 0 2 -6 -3 -12 -14 -18
-42 -103 -45 -135 -1 -7 -5 -13 -10 -13 -5 0 -7 -4 -3 -9 3 -5 1 -12 -5 -16
-6 -4 -8 -11 -5 -16 4 -5 1 -9 -6 -9 -7 0 -9 -3 -6 -6 4 -4 -3 -20 -14 -35
-11 -16 -18 -29 -15 -29 3 0 -8 -22 -25 -50 -17 -27 -35 -50 -39 -50 -5 0 -12
-10 -16 -22 -4 -13 -10 -25 -14 -28 -3 -3 -22 -27 -40 -55 -19 -27 -40 -56
-47 -63 -7 -7 -20 -26 -30 -42 -9 -17 -21 -30 -25 -30 -4 0 -8 -6 -8 -13 0 -7
-8 -22 -18 -33 -44 -49 -69 -110 -75 -181 -2 -24 1 -43 5 -43 5 0 7 -3 4 -8
-11 -19 68 -142 93 -142 5 0 11 -4 13 -8 4 -11 94 -52 113 -52 8 0 15 -4 15
-8 0 -9 108 -39 123 -34 4 1 7 -1 7 -6 0 -4 30 -9 66 -10 55 -3 71 0 100 20
19 13 34 27 34 31 0 4 8 17 18 28 11 10 25 32 33 47 8 15 22 36 32 46 9 11 17
23 17 28 0 4 3 8 8 7 12 -2 52 13 52 20 0 3 28 7 63 9 72 3 82 4 122 22 17 7
35 14 40 15 21 5 132 85 171 123 23 23 44 38 48 35 3 -4 6 -1 6 5 0 7 9 21 19
31 20 20 20 20 27 -1 12 -38 6 -95 -14 -140 -26 -57 -130 -162 -247 -251 -50
-38 -221 -212 -241 -245 -10 -18 -22 -32 -26 -32 -4 0 -8 -7 -8 -15 0 -8 -4
-15 -8 -15 -4 0 -14 -16 -21 -35 -7 -19 -17 -35 -22 -35 -5 0 -9 -8 -9 -18 0
-10 -4 -22 -8 -28 -9 -10 -37 -96 -41 -125 0 -5 -5 -7 -11 -4 -5 3 -10 2 -10
-3 0 -5 -14 -12 -31 -16 -16 -3 -37 -11 -44 -18 -8 -7 -32 -26 -53 -43 -40
-31 -46 -39 -81 -112 -29 -62 -37 -122 -37 -278 l1 -140 83 -5 c45 -3 82 -1
82 3 0 4 9 3 20 -3 11 -6 20 -7 20 -3 0 4 45 6 100 3 55 -3 100 -1 100 3 0 4
9 3 20 -3 11 -6 20 -7 20 -3 0 4 45 6 100 3 55 -3 100 -1 100 3 0 4 9 3 20 -3
11 -6 20 -7 20 -3 0 4 45 6 100 3 55 -3 100 -1 100 3 0 4 9 3 20 -3 11 -6 20
-7 20 -3 0 4 36 6 80 3 44 -3 80 -1 80 3 0 4 9 3 20 -3 14 -8 20 -8 20 0 0 8
6 8 20 0 14 -8 20 -8 20 0 0 8 6 8 20 0 14 -8 20 -8 20 0 0 8 6 8 20 0 14 -8
20 -8 20 0 0 8 6 8 20 0 14 -8 20 -8 20 0 0 8 6 8 20 0 14 -8 20 -8 20 0 0 8
6 8 20 0 14 -8 20 -8 20 0 0 8 6 8 20 0 14 -8 20 -8 20 0 0 8 6 8 20 0 14 -8
20 -8 20 0 0 8 6 8 20 0 14 -8 20 -8 20 0 0 8 6 8 20 0 14 -8 20 -8 20 0 0 8
6 8 20 0 14 -8 20 -8 20 0 0 8 6 8 20 0 14 -8 20 -8 20 0 0 8 6 8 20 0 14 -8
20 -8 20 0 0 8 6 8 20 0 14 -8 20 -8 20 0 0 8 6 8 20 0 14 -8 20 -8 20 0 0 8
6 8 20 0 14 -8 20 -8 20 0 0 8 6 8 20 0 14 -8 20 -8 20 0 0 8 6 8 20 0 14 -8
20 -8 20 0 0 8 6 8 20 0 14 -8 20 -8 20 0 0 8 6 8 20 0 14 -8 20 -8 20 0 0 8
6 8 20 0 14 -8 20 -8 20 0 0 8 6 8 20 0 11 -6 20 -7 20 -2 0 9 52 7 77 -3 7
-2 18 5 24 17 9 16 8 19 -2 13 -8 -6 -10 -4 -3 6 12 19 13 59 2 59 -5 0 -6 5
-2 12 12 18 11 58 -1 58 -7 0 -6 3 1 8 12 8 12 61 0 81 -7 10 -5 12 4 6 10 -6
11 -4 4 6 -5 8 -10 34 -11 58 -1 25 -6 47 -10 50 -4 3 -10 17 -11 31 -2 14
-10 32 -18 41 -8 8 -14 20 -14 26 0 16 -91 103 -107 103 -7 0 -13 5 -13 10 0
6 -9 10 -20 10 -11 0 -20 4 -20 10 0 5 -7 7 -15 4 -15 -6 -15 19 -1 71 15 54
27 102 32 124 3 13 9 31 13 40 5 9 9 19 10 24 1 4 1 8 2 10 0 1 3 16 5 32 3
17 9 41 14 55 5 14 11 41 14 60 9 54 16 93 22 120 15 61 26 290 14 290 -3 0
-5 17 -4 37 0 21 -2 42 -4 47 -5 9 -11 54 -15 104 0 12 -5 22 -10 22 -4 0 -6
4 -3 9 3 4 -1 35 -10 67 -9 33 -17 64 -18 69 -3 10 -9 26 -33 85 -8 19 -16 43
-19 54 -2 10 -10 26 -17 35 -8 9 -19 30 -26 48 -7 18 -19 38 -27 44 -8 6 -14
18 -14 25 0 8 -8 23 -17 33 -22 24 -32 37 -62 80 -25 35 -152 160 -177 174 -8
4 -25 18 -38 30 -13 13 -37 29 -53 37 -15 8 -34 21 -41 28 -12 11 -21 14 -38
11 -4 0 -10 3 -13 9 -8 13 -111 63 -111 54 0 -4 -4 -1 -9 7 -5 7 -17 14 -27
15 -11 1 -39 8 -64 16 -59 17 -54 16 -132 33 -37 8 -72 18 -79 23 -8 5 -10 3
-4 -5 6 -10 3 -11 -12 -2 -11 6 -23 8 -25 5 -3 -2 -63 54 -134 125 -102 101
-136 129 -162 133 -17 3 -35 2 -38 -1z"/>
</g>
</svg>
